<svg xmlns="http://www.w3.org/2000/svg" viewBox="0 0 40 40" width="80" height="80"><path fill="#b6dcfe" d="M19.987,27.246c-2.294-5.177-10.194-5.778-13.726-5.778c-0.113,0-0.219,0.001-0.319,0.002 c0.924-1.583,1.136-3.067,0.629-4.421c-0.634-1.694-2.278-2.834-3.75-3.548h9.799c0.285,0.962,1.114,3.302,2.502,3.671 c0.875,0.232,1.614,0.351,2.195,0.351c1.519,0,1.683-0.858,1.683-1.228c0.029-0.173,0.059-0.366,0.087-0.567l0.281-0.123 c0,0,0.256-0.104,0.632-0.104c0.348,0,0.474,0.061,0.475,0.062l0.434,0.379c0.006,0.119,0.009,0.237,0.009,0.354 c0.075,0.508,0.392,1.228,1.742,1.228c0.55,0,1.248-0.115,2.136-0.351c1.455-0.365,2.297-2.708,2.585-3.671h9.859 c-1.495,0.731-3.187,1.905-3.817,3.638c-0.486,1.335-0.275,2.786,0.625,4.324c-0.159-0.003-0.336-0.005-0.527-0.005 C30.02,21.458,22.197,22.06,19.987,27.246z"/><path fill="#4788c7" d="M35.412,14c-1.052,0.742-2.004,1.717-2.46,2.967c-0.458,1.258-0.367,2.595,0.269,3.992 c-3.518,0.034-10.547,0.693-13.242,5.196c-2.719-4.409-9.604-5.126-13.214-5.183c0.661-1.443,0.754-2.816,0.274-4.099 C6.587,15.664,5.67,14.72,4.652,14h7.596c0.404,1.252,1.269,3.262,2.745,3.654c0.917,0.244,1.699,0.367,2.324,0.367 c1.891,0,2.148-1.192,2.179-1.623c0.017-0.105,0.033-0.214,0.049-0.327l0.004-0.001C19.551,16.069,19.733,16,20,16 c0.103,0,0.175,0.006,0.222,0.013l0.193,0.169c0.001,0.038,0.001,0.075,0.001,0.112v0.08l0.013,0.079 c0.076,0.472,0.445,1.568,2.23,1.568c0.602,0,1.321-0.117,2.251-0.364c1.543-0.387,2.439-2.455,2.838-3.657H35.412 M40,13H27 c0,0-0.833,3.311-2.333,3.688c-0.676,0.18-1.408,0.334-2.008,0.334c-0.658,0-1.155-0.186-1.242-0.727 c0-1.224-0.333-2.635-0.333-2.635l-0.333,1.487c0,0-0.167-0.146-0.75-0.146c-0.5,0-0.833,0.146-0.833,0.146l-0.333-1.487 c0,0-0.167,1.6-0.333,2.635c0,0.542-0.502,0.727-1.183,0.727c-0.621,0-1.391-0.154-2.067-0.334C13.833,16.311,13,13,13,13H0 c0,0,9.839,2.296,5,9c0,0,0.476-0.032,1.261-0.032C9.664,21.968,18.852,22.571,20,29c1.048-6.392,9.942-7.043,13.519-7.042 C34.433,21.958,35,22,35,22C30.178,15.41,40,13,40,13L40,13z"/></svg>